<mxfile host="app.diagrams.net" agent="Mozilla/5.0 (Windows NT 10.0; Win64; x64) AppleWebKit/537.36 (KHTML, like Gecko) Chrome/131.0.0.0 Safari/537.36" version="24.7.6">
  <diagram name="Page-1" id="afqI2EQTLsOWQRD4tnXt">
    <mxGraphModel dx="1034" dy="500" grid="1" gridSize="10" guides="1" tooltips="1" connect="1" arrows="1" fold="1" page="1" pageScale="1" pageWidth="827" pageHeight="1169" math="0" shadow="0">
      <root>
        <mxCell id="0" />
        <mxCell id="1" parent="0" />
        <mxCell id="t-VA8x5v0h3ZRSfZjn-m-1" value="REDI RR" style="image;aspect=fixed;html=1;points=[];align=center;fontSize=12;image=img/lib/azure2/general/Folder_Blank.svg;" vertex="1" parent="1">
          <mxGeometry x="30" y="10" width="69" height="56.00000000000001" as="geometry" />
        </mxCell>
        <mxCell id="t-VA8x5v0h3ZRSfZjn-m-3" value="L" style="html=1;verticalLabelPosition=bottom;align=center;labelBackgroundColor=#ffffff;verticalAlign=top;strokeWidth=2;strokeColor=#0080F0;shadow=0;dashed=0;shape=mxgraph.ios7.icons.folder;" vertex="1" parent="1">
          <mxGeometry x="99" y="66" width="51" height="34" as="geometry" />
        </mxCell>
        <mxCell id="t-VA8x5v0h3ZRSfZjn-m-4" value="LCZ696" style="sketch=0;outlineConnect=0;fontColor=#232F3E;gradientColor=none;fillColor=#232F3D;strokeColor=none;dashed=0;verticalLabelPosition=bottom;verticalAlign=top;align=center;html=1;fontSize=12;fontStyle=0;aspect=fixed;pointerEvents=1;shape=mxgraph.aws4.folder;" vertex="1" parent="1">
          <mxGeometry x="150" y="80" width="43.94" height="40" as="geometry" />
        </mxCell>
        <mxCell id="t-VA8x5v0h3ZRSfZjn-m-5" value="/-HQ-BS" style="sketch=0;pointerEvents=1;shadow=0;dashed=0;html=1;strokeColor=none;fillColor=#434445;aspect=fixed;labelPosition=center;verticalLabelPosition=bottom;verticalAlign=top;align=center;outlineConnect=0;shape=mxgraph.vvd.folder;" vertex="1" parent="1">
          <mxGeometry x="195.53" y="110" width="64.47" height="49" as="geometry" />
        </mxCell>
        <mxCell id="t-VA8x5v0h3ZRSfZjn-m-16" style="edgeStyle=elbowEdgeStyle;rounded=0;orthogonalLoop=1;jettySize=auto;elbow=vertical;html=1;" edge="1" parent="1" source="t-VA8x5v0h3ZRSfZjn-m-6" target="t-VA8x5v0h3ZRSfZjn-m-7">
          <mxGeometry relative="1" as="geometry" />
        </mxCell>
        <mxCell id="t-VA8x5v0h3ZRSfZjn-m-6" value="CTA CLCZ696A2201" style="sketch=0;pointerEvents=1;shadow=0;dashed=0;html=1;strokeColor=none;fillColor=#434445;aspect=fixed;labelPosition=center;verticalLabelPosition=bottom;verticalAlign=top;align=center;outlineConnect=0;shape=mxgraph.vvd.folder;" vertex="1" parent="1">
          <mxGeometry x="260" y="159" width="50" height="38" as="geometry" />
        </mxCell>
        <mxCell id="t-VA8x5v0h3ZRSfZjn-m-7" value="20070629 Original Submission" style="sketch=0;pointerEvents=1;shadow=0;dashed=0;html=1;strokeColor=none;fillColor=#434445;aspect=fixed;labelPosition=center;verticalLabelPosition=bottom;verticalAlign=top;align=center;outlineConnect=0;shape=mxgraph.vvd.folder;" vertex="1" parent="1">
          <mxGeometry x="340" y="240" width="50" height="38" as="geometry" />
        </mxCell>
        <mxCell id="t-VA8x5v0h3ZRSfZjn-m-8" value="Import and Export Logs" style="sketch=0;pointerEvents=1;shadow=0;dashed=0;html=1;strokeColor=none;labelPosition=center;verticalLabelPosition=bottom;verticalAlign=top;outlineConnect=0;align=center;shape=mxgraph.office.concepts.folder;fillColor=#CCCBCB;" vertex="1" parent="1">
          <mxGeometry x="430" y="310" width="50" height="45" as="geometry" />
        </mxCell>
        <mxCell id="t-VA8x5v0h3ZRSfZjn-m-9" value="Submission related correspondence" style="sketch=0;pointerEvents=1;shadow=0;dashed=0;html=1;strokeColor=none;labelPosition=center;verticalLabelPosition=bottom;verticalAlign=top;outlineConnect=0;align=center;shape=mxgraph.office.concepts.folder;fillColor=#CCCBCB;" vertex="1" parent="1">
          <mxGeometry x="600" y="310" width="50" height="45" as="geometry" />
        </mxCell>
        <mxCell id="t-VA8x5v0h3ZRSfZjn-m-10" value="Documents" style="html=1;verticalLabelPosition=bottom;align=center;labelBackgroundColor=#ffffff;verticalAlign=top;strokeWidth=2;strokeColor=#0080F0;shadow=0;dashed=0;shape=mxgraph.ios7.icons.folders;" vertex="1" parent="1">
          <mxGeometry x="320" y="320" width="50" height="35" as="geometry" />
        </mxCell>
        <mxCell id="t-VA8x5v0h3ZRSfZjn-m-11" value="Receipts" style="image;html=1;image=img/lib/clip_art/general/Full_Folder_128x128.png" vertex="1" parent="1">
          <mxGeometry x="160" y="240" width="70" height="50" as="geometry" />
        </mxCell>
        <mxCell id="t-VA8x5v0h3ZRSfZjn-m-17" style="edgeStyle=elbowEdgeStyle;rounded=0;orthogonalLoop=1;jettySize=auto;elbow=vertical;html=1;entryX=0.505;entryY=0.16;entryDx=0;entryDy=0;entryPerimeter=0;" edge="1" parent="1" source="t-VA8x5v0h3ZRSfZjn-m-6" target="t-VA8x5v0h3ZRSfZjn-m-11">
          <mxGeometry relative="1" as="geometry">
            <mxPoint x="295" y="207" as="sourcePoint" />
            <mxPoint x="375" y="250" as="targetPoint" />
          </mxGeometry>
        </mxCell>
      </root>
    </mxGraphModel>
  </diagram>
</mxfile>
